<?xml version="1.0" encoding="utf-8"?>
<!-- Generator: Adobe Illustrator 23.0.0, SVG Export Plug-In . SVG Version: 6.00 Build 0)  -->
<svg version="1.1" id="Capa_1" xmlns="http://www.w3.org/2000/svg" xmlns:xlink="http://www.w3.org/1999/xlink" x="0px" y="0px"
	 viewBox="0 0 32 32" style="enable-background:new 0 0 32 32;" xml:space="preserve">
<style type="text/css">
	.st0{fill:#F0BD5F;}
	.st1{fill:#020203;}
</style>
<g>
	<path class="st0" d="M26.68,21.45H4.92c-0.75,0-1.36-0.4-1.36-0.89V10.52c0-0.49,0.61-0.89,1.36-0.89h21.76
		c0.75,0,1.36,0.4,1.36,0.89v10.05C28.04,21.05,27.43,21.45,26.68,21.45z"/>
	<polygon class="st1" points="26.04,19.68 26.04,11.4 5.56,11.4 5.56,19.68 6.64,19.68 6.64,11.99 7.71,11.99 7.71,19.68 
		8.79,19.68 8.79,11.99 9.87,11.99 9.87,18.5 10.95,18.5 10.95,11.99 12.03,11.99 12.03,18.5 13.1,18.5 13.1,11.99 14.18,11.99 
		14.18,18.5 15.26,18.5 15.26,11.99 16.34,11.99 16.34,19.68 17.42,19.68 17.42,11.99 18.49,11.99 18.49,18.5 19.57,18.5 
		19.57,11.99 20.65,11.99 20.65,18.5 21.73,18.5 21.73,11.99 22.81,11.99 22.81,19.68 23.88,19.68 23.88,11.99 24.96,11.99 
		24.96,19.68 	"/>
	<path class="st1" d="M27.93,8.45h-1.37v0.59h1.37c0.63,0,1.14,0.66,1.14,1.48v1.77h0.46v-1.77C29.53,9.38,28.81,8.45,27.93,8.45z"
		/>
	<path class="st1" d="M2.99,10.52c0-0.81,0.51-1.48,1.14-1.48h1.37V8.45H4.13c-0.88,0-1.6,0.93-1.6,2.07v1.77h0.46V10.52z"/>
	<path class="st1" d="M2.53,20.56v-1.77H2.07v1.77c0,1.14,0.72,2.07,1.6,2.07h1.37v-0.59H3.67C3.04,22.04,2.53,21.38,2.53,20.56z"/>
	<path class="st1" d="M29.4,20.56c0,0.81-0.51,1.48-1.14,1.48h-1.37v0.59h1.37c0.88,0,1.6-0.93,1.6-2.07v-1.77H29.4V20.56z"/>
	<rect x="16.94" y="19.09" class="st1" width="0.46" height="0.59"/>
	<rect x="14.18" y="19.03" class="st1" width="1.08" height="0.65"/>
	<rect x="18.46" y="19.03" class="st1" width="1.08" height="0.65"/>
	<rect x="12.01" y="19.03" class="st1" width="1.08" height="0.65"/>
	<rect x="9.89" y="19.03" class="st1" width="1.08" height="0.65"/>
	<rect x="20.64" y="19.03" class="st1" width="1.08" height="0.65"/>
</g>
</svg>
