<?xml version="1.0" encoding="utf-8"?>
<!-- Generator: Adobe Illustrator 16.0.0, SVG Export Plug-In . SVG Version: 6.00 Build 0)  -->
<!DOCTYPE svg PUBLIC "-//W3C//DTD SVG 1.1//EN" "http://www.w3.org/Graphics/SVG/1.1/DTD/svg11.dtd">
<svg version="1.1" id="Capa_1" xmlns="http://www.w3.org/2000/svg" xmlns:xlink="http://www.w3.org/1999/xlink" x="0px" y="0px"
	 width="127px" height="175px" viewBox="416.5 166.5 127 175" enable-background="new 416.5 166.5 127 175" xml:space="preserve">
<g>
	<g opacity="0.4">
		<g>
			<path fill="#26A690" d="M479.999,228.292c-11.89,0-21.563,9.673-21.563,21.563c0,11.891,9.674,21.563,21.563,21.563
				c11.891,0,21.563-9.673,21.563-21.563C501.563,237.964,491.89,228.292,479.999,228.292z M482.084,232.589
				c7.814,0.938,14.212,7.108,15.181,15.18h-15.181V232.589z M479.999,267.248c-9.591,0-17.395-7.802-17.395-17.394
				c0-8.885,6.699-16.231,15.311-17.265v16.678c0,1.473,1.198,2.671,2.671,2.671h16.679
				C496.23,260.55,488.885,267.248,479.999,267.248z"/>
		</g>
	</g>
	<g opacity="0.4">
		<g>
			<path fill="#26A690" d="M506.793,277.195h-44.238c-1.15,0-2.084,0.933-2.084,2.084s0.934,2.084,2.084,2.084h44.238
				c1.151,0,2.085-0.933,2.085-2.084S507.944,277.195,506.793,277.195z"/>
		</g>
	</g>
	<g opacity="0.4">
		<g>
			<path fill="#26A690" d="M506.793,287.049h-44.238c-1.15,0-2.084,0.934-2.084,2.084c0,1.152,0.934,2.084,2.084,2.084h44.238
				c1.151,0,2.085-0.932,2.085-2.084C508.878,287.982,507.944,287.049,506.793,287.049z"/>
		</g>
	</g>
	<g opacity="0.4">
		<g>
			<path fill="#26A690" d="M506.793,296.904h-44.238c-1.15,0-2.084,0.932-2.084,2.084c0,1.15,0.934,2.084,2.084,2.084h44.238
				c1.151,0,2.085-0.934,2.085-2.084C508.878,297.836,507.944,296.904,506.793,296.904z"/>
		</g>
	</g>
	<g opacity="0.4">
		<g>
			<path fill="#26A690" d="M453.758,277.236c-0.268-0.056-0.545-0.056-0.814,0c-0.932,0.175-1.677,1.021-1.677,2.043
				c0,1.148,0.933,2.084,2.085,2.084c1.156,0,2.084-0.947,2.084-2.084C455.436,278.278,454.714,277.416,453.758,277.236z"/>
		</g>
	</g>
	<g opacity="0.4">
		<g>
			<path fill="#26A690" d="M453.758,287.092c-0.268-0.057-0.545-0.057-0.814,0c-0.907,0.17-1.677,0.998-1.677,2.043
				c0,1.135,0.924,2.084,2.085,2.084c1.181,0,2.084-0.967,2.084-2.084C455.436,288.104,454.685,287.264,453.758,287.092z"/>
		</g>
	</g>
	<g opacity="0.4">
		<g>
			<path fill="#26A690" d="M453.76,296.943c-1.261-0.254-2.493,0.709-2.493,2.045c0,1.168,0.956,2.084,2.085,2.084
				c1.168,0,2.084-0.955,2.084-2.084C455.436,298.068,454.816,297.168,453.76,296.943z"/>
		</g>
	</g>
	<g opacity="0.4">
		<g>
			<path fill="#26A690" d="M530.701,262.195c-1.151,0-2.084,0.934-2.084,2.084v51.233c0,3.012-2.451,5.463-5.464,5.463h-86.309
				c-3.012,0-5.463-2.451-5.463-5.463V208c0-3.013,2.451-5.464,5.463-5.464h17.657v1.161c0,0.001,0,0.002,0,0.003v0.017
				c0,2.988,2.432,5.42,5.42,5.42h0.02h0.764v3.713h-18.746c-1.947,0-3.531,1.584-3.531,3.531v93.963
				c0,1.947,1.584,3.531,3.531,3.531h33.386c1.151,0,2.084-0.934,2.084-2.086c0-1.15-0.933-2.082-2.084-2.082h-32.749v-92.69h18.109
				v3.283c0,2.536,2.063,4.6,4.599,4.6h29.392c2.536,0,4.599-2.063,4.599-4.6v-3.283h18.108v92.688h-32.33
				c-1.151,0-2.084,0.932-2.084,2.084c0,1.15,0.933,2.084,2.084,2.084h32.968c1.947,0,3.531-1.584,3.531-3.531v-93.962
				c0-1.946-1.584-3.531-3.531-3.531h-18.746v-3.712h0.763h0.021c2.987,0,5.418-2.432,5.418-5.42v-0.02v-1.161h17.658
				c3.013,0,5.463,2.451,5.463,5.464v46.553c0.001,1.151,0.934,2.084,2.084,2.084c1.152,0,2.085-0.933,2.085-2.084V208
				c0-5.312-4.321-9.632-9.632-9.632h-17.658v-1.264c0-2.988-2.431-5.42-5.418-5.42h-11.352v-3.389c0-2.999-2.44-5.439-5.439-5.439
				h-6.573c-2.999,0-5.438,2.44-5.438,5.439v3.389h-11.352c-2.988,0-5.42,2.431-5.42,5.419v1.264h-17.656
				c-5.312,0-9.633,4.321-9.633,9.632v107.513c0,5.311,4.321,9.633,9.633,9.633h86.307c5.312,0,9.633-4.322,9.633-9.633V264.28
				C532.786,263.128,531.853,262.195,530.701,262.195z M495.125,220.3c0,0.237-0.193,0.43-0.43,0.43h-29.392
				c-0.237,0-0.431-0.192-0.431-0.43v-3.283h30.252V220.3L495.125,220.3z M495.125,212.849L495.125,212.849h-30.252v-3.713h30.252
				V212.849z M476.712,187.025h6.574c0.688,0,1.271,0.582,1.271,1.271v3.389h-9.114v-3.389l0,0
				C475.441,187.606,476.024,187.025,476.712,187.025z M458.671,197.104c0-0.678,0.573-1.251,1.251-1.251c1.776,0,38.395,0,40.154,0
				c0.678,0,1.251,0.572,1.251,1.251c0,2.462,0,4.248,0,6.593c0,0.688-0.581,1.27-1.271,1.27c-0.867,0-38.844,0-40.115,0
				c-0.688,0-1.27-0.58-1.271-1.269V197.104L458.671,197.104z"/>
		</g>
	</g>
</g>
</svg>
